<?xml version="1.0" encoding="UTF-8"?>
<svg id="Layer_1" data-name="Layer 1" xmlns="http://www.w3.org/2000/svg" viewBox="0 0 3764.67 2015.37">
  <defs>
    <style>
      .cls-1 {
        letter-spacing: -.04em;
      }

      .cls-2 {
        fill: #912f40;
      }

      .cls-3 {
        fill: #40434e;
      }

      .cls-4 {
        font-family: ArticulatCF-Heavy, 'Articulat CF';
        font-size: 500px;
        font-weight: 800;
      }

      .cls-5 {
        letter-spacing: 0em;
      }
    </style>
  </defs>
  <g>
    <path class="cls-2" d="m979.67,1443.44c-39.67,32.04-84.42,55.34-133,69.27-46.93,13.46-95.47,17.65-144.25,12.46-48.78-5.19-95.34-19.5-138.4-42.54-44.56-23.84-83.4-56.05-115.44-95.71-32.04-39.67-55.34-84.42-69.27-133-13.46-46.93-17.65-95.47-12.46-144.25,5.19-48.78,19.5-95.34,42.54-138.4,23.84-44.56,56.05-83.4,95.71-115.44s84.42-55.34,133-69.27c46.93-13.46,95.47-17.65,144.25-12.46,48.78,5.19,95.34,19.5,138.4,42.54,44.56,23.84,83.4,56.05,115.44,95.71,32.04,39.67,55.34,84.42,69.27,133,13.46,46.93,17.65,95.47,12.46,144.25-5.19,48.78-19.5,95.34-42.54,138.4-23.84,44.56-56.05,83.4-95.71,115.44m11.96,14.81c165.59-133.73,195.39-373.27,70.74-543.1-137.92-187.91-409.06-216.77-583.45-62.1-157.6,139.79-178.88,380.23-45.15,545.82,137.65,170.44,387.41,197.03,557.86,59.37h0Z"/>
    <path class="cls-2" d="m505.27,1517.94c-47.58-18.34-90.14-45.43-126.49-80.54-35.12-33.92-63.02-73.85-82.91-118.69-19.89-44.84-30.78-92.32-32.36-141.12-1.63-50.51,6.84-100.25,25.17-147.83,18.34-47.58,45.43-90.14,80.54-126.49,33.92-35.12,73.85-63.02,118.7-82.91,44.84-19.89,92.32-30.78,141.12-32.36,50.51-1.63,100.25,6.84,147.83,25.17s90.14,45.43,126.49,80.54c35.12,33.92,63.02,73.85,82.91,118.7,19.89,44.84,30.78,92.32,32.36,141.12,1.63,50.51-6.84,100.25-25.17,147.83-18.34,47.58-45.43,90.14-80.54,126.49-33.92,35.12-73.85,63.02-118.69,82.91-44.84,19.89-92.32,30.78-141.12,32.36-50.51,1.63-100.25-6.84-147.83-25.17m-6.85,17.77c198.61,76.54,420.96-17.42,505.71-210.28,93.77-213.4-16.81-462.64-237.95-536.33-199.86-66.6-418.73,35.2-495.27,233.81-78.78,204.43,23.08,434.02,227.51,512.8h0Z"/>
    <path class="cls-2" d="m203.55,1144.35c-7.91-50.37-5.72-100.78,6.51-149.82,11.81-47.37,32.45-91.5,61.34-131.15,28.89-39.65,64.56-72.82,106.04-98.59,42.93-26.67,90.24-44.2,140.61-52.11,50.37-7.91,100.78-5.72,149.82,6.51,47.37,11.81,91.5,32.45,131.15,61.34,39.65,28.89,72.82,64.56,98.59,106.04,26.67,42.93,44.2,90.24,52.11,140.61s5.72,100.78-6.51,149.82c-11.81,47.37-32.45,91.5-61.34,131.15-28.89,39.65-64.56,72.82-106.04,98.59-42.93,26.67-90.24,44.2-140.61,52.11-50.37,7.91-100.78,5.72-149.82-6.51-47.37-11.81-91.5-32.45-131.15-61.34-39.65-28.89-72.82-64.56-98.59-106.04-26.67-42.93-44.2-90.24-52.11-140.61m-18.81,2.95c33.02,210.27,225.56,355.85,434.96,332.81,231.7-25.49,392.26-245.88,345.5-474.23-42.26-206.38-239.85-345.03-450.12-312.01-216.43,33.99-364.34,237-330.35,453.43h0Z"/>
    <path class="cls-2" d="m376.23,696.25c39.67-32.04,84.42-55.34,133-69.27,46.93-13.46,95.47-17.65,144.25-12.46,48.78,5.19,95.34,19.5,138.4,42.54,44.56,23.84,83.4,56.05,115.44,95.71s55.34,84.42,69.27,133c13.46,46.93,17.65,95.47,12.46,144.25-5.19,48.78-19.5,95.34-42.54,138.4-23.84,44.56-56.05,83.4-95.71,115.44s-84.42,55.34-133,69.27c-46.93,13.46-95.47,17.65-144.25,12.46-48.78-5.19-95.34-19.5-138.4-42.54-44.56-23.84-83.4-56.05-115.44-95.71-32.04-39.67-55.34-84.42-69.27-133-13.46-46.93-17.65-95.47-12.46-144.25,5.19-48.78,19.5-95.34,42.54-138.4,23.84-44.56,56.05-83.4,95.71-115.44m-11.96-14.81c-165.59,133.73-195.39,373.27-70.74,543.1,137.92,187.91,409.06,216.77,583.45,62.1,157.6-139.79,178.88-380.23,45.15-545.82-137.65-170.44-387.41-197.03-557.86-59.37h0Z"/>
    <path class="cls-2" d="m850.63,621.75c47.58,18.34,90.14,45.43,126.49,80.54,35.12,33.92,63.02,73.85,82.91,118.69,19.89,44.84,30.78,92.32,32.36,141.12,1.63,50.51-6.84,100.25-25.17,147.83-18.34,47.58-45.43,90.14-80.54,126.49-33.92,35.12-73.85,63.02-118.7,82.91-44.84,19.89-92.32,30.78-141.12,32.36-50.51,1.63-100.25-6.84-147.83-25.17-47.58-18.34-90.14-45.43-126.49-80.54-35.12-33.92-63.02-73.85-82.91-118.7-19.89-44.84-30.78-92.32-32.36-141.12-1.63-50.51,6.84-100.25,25.17-147.83,18.34-47.58,45.43-90.14,80.54-126.49,33.92-35.12,73.85-63.02,118.69-82.91,44.84-19.89,92.32-30.78,141.12-32.36,50.51-1.63,100.25,6.84,147.83,25.17m6.85-17.77c-198.61-76.54-420.96,17.42-505.71,210.28-93.77,213.4,16.81,462.64,237.95,536.33,199.86,66.6,418.73-35.2,495.27-233.81,78.78-204.43-23.08-434.02-227.51-512.8h0Z"/>
    <path class="cls-2" d="m1152.35,995.35c7.91,50.37,5.72,100.78-6.51,149.82-11.81,47.37-32.45,91.5-61.34,131.15-28.89,39.65-64.56,72.82-106.04,98.59-42.93,26.67-90.24,44.2-140.61,52.11-50.37,7.91-100.78,5.72-149.82-6.51-47.37-11.81-91.5-32.45-131.15-61.34-39.65-28.89-72.82-64.56-98.59-106.04-26.67-42.93-44.2-90.24-52.11-140.61-7.91-50.37-5.72-100.78,6.51-149.82,11.81-47.37,32.45-91.5,61.34-131.15,28.89-39.65,64.56-72.82,106.04-98.59,42.93-26.67,90.24-44.2,140.61-52.11,50.37-7.91,100.78-5.72,149.82,6.51,47.37,11.81,91.5,32.45,131.15,61.34,39.65,28.89,72.82,64.56,98.59,106.04,26.67,42.93,44.2,90.24,52.11,140.61m18.81-2.95c-33.02-210.27-225.56-355.85-434.96-332.81-231.7,25.49-392.26,245.88-345.5,474.23,42.26,206.38,239.85,345.03,450.12,312.01,216.43-33.99,364.34-237,330.35-453.43h0Z"/>
  </g>
  <text class="cls-4" transform="translate(1225.77 996.09)"><tspan class="cls-2"><tspan x="0" y="0">H5N1</tspan></tspan><tspan class="cls-3"><tspan x="0" y="400">T</tspan><tspan class="cls-5" x="306.5" y="400">R</tspan><tspan class="cls-1" x="633.5" y="400">A</tspan><tspan x="995.5" y="400">CKER</tspan></tspan></text>
</svg>